<?xml version="1.0" encoding="UTF-8" standalone="no"?>
<!-- Created with Inkscape (http://www.inkscape.org/) -->

<svg
   width="41.440346mm"
   height="10.383124mm"
   viewBox="0 0 41.440346 10.383125"
   version="1.1"
   id="svg1"
   xml:space="preserve"
   sodipodi:docname="element_logo_white_bg.svg"
   xmlns:inkscape="http://www.inkscape.org/namespaces/inkscape"
   xmlns:sodipodi="http://sodipodi.sourceforge.net/DTD/sodipodi-0.dtd"
   xmlns="http://www.w3.org/2000/svg"
   xmlns:svg="http://www.w3.org/2000/svg"><sodipodi:namedview
     id="namedview1"
     pagecolor="#ffffff"
     bordercolor="#000000"
     borderopacity="0.25"
     inkscape:showpageshadow="2"
     inkscape:pageopacity="0.0"
     inkscape:pagecheckerboard="0"
     inkscape:deskcolor="#d1d1d1"
     inkscape:document-units="mm"
     showgrid="false"
     inkscape:export-bgcolor="#ffffffff" /><defs
     id="defs1" /><g
     id="layer1"
     transform="translate(-84.803844,-143.2075)"
     inkscape:export-filename="element_logo_white_bg.svg"
     inkscape:export-xdpi="96"
     inkscape:export-ydpi="96"><g
       style="fill:none"
       id="g1"
       transform="matrix(0.26458333,0,0,0.26458333,85.841658,144.26667)"><rect
         style="display:inline;fill:#ffffff;fill-opacity:1;stroke:#ffffff;stroke-width:1.31041;stroke-dasharray:none;stroke-opacity:1"
         id="rect20"
         width="155.31451"
         height="37.932892"
         x="-3.2672384"
         y="-3.3479743"
         rx="3.3718522"
         ry="3.7915266"
         transform="translate(-2.1259843e-6)"
         inkscape:label="rect20"
         inkscape:export-filename="rect20.svg"
         inkscape:export-xdpi="96"
         inkscape:export-ydpi="96" /><path
         fill-rule="evenodd"
         clip-rule="evenodd"
         d="M 16,32 C 24.8366,32 32,24.8366 32,16 32,7.16344 24.8366,0 16,0 7.16344,0 0,7.16344 0,16 0,24.8366 7.16344,32 16,32 Z"
         fill="#0dbd8b"
         id="path1" /><path
         fill-rule="evenodd"
         clip-rule="evenodd"
         d="m 13.0756,7.455 c 0,-0.64584 0.5247,-1.1694 1.1719,-1.1694 4.3864,0 7.9423,3.54853 7.9423,7.9259 0,0.6458 -0.5246,1.1694 -1.1718,1.1694 -0.6472,0 -1.1719,-0.5236 -1.1719,-1.1694 0,-3.0857 -2.5066,-5.58711 -5.5986,-5.58711 -0.6472,0 -1.1719,-0.52355 -1.1719,-1.16939 z"
         fill="#ffffff"
         id="path2" /><path
         fill-rule="evenodd"
         clip-rule="evenodd"
         d="m 24.5424,13.042 c 0.6472,0 1.1719,0.5235 1.1719,1.1694 0,4.3773 -3.5559,7.9258 -7.9424,7.9258 -0.6472,0 -1.1718,-0.5235 -1.1718,-1.1693 0,-0.6459 0.5246,-1.1694 1.1718,-1.1694 3.0921,0 5.5987,-2.5015 5.5987,-5.5871 0,-0.6459 0.5247,-1.1694 1.1718,-1.1694 z"
         fill="#ffffff"
         id="path3" /><path
         fill-rule="evenodd"
         clip-rule="evenodd"
         d="m 18.9446,24.5446 c 0,0.6459 -0.5247,1.1694 -1.1718,1.1694 -4.3865,0 -7.94239,-3.5485 -7.94239,-7.9258 0,-0.6459 0.52469,-1.1694 1.17179,-1.1694 0.6472,0 1.1719,0.5235 1.1719,1.1694 0,3.0856 2.5066,5.587 5.5987,5.587 0.6471,0 1.1718,0.5236 1.1718,1.1694 z"
         fill="#ffffff"
         id="path4" /><path
         fill-rule="evenodd"
         clip-rule="evenodd"
         d="m 7.45823,18.9576 c -0.64718,0 -1.17183,-0.5235 -1.17183,-1.1694 0,-4.3773 3.55591,-7.92581 7.9423,-7.92581 0.6472,0 1.1719,0.52351 1.1719,1.16941 0,0.6458 -0.5247,1.1694 -1.1719,1.1694 -3.092,0 -5.59864,2.5014 -5.59864,5.587 0,0.6459 -0.52465,1.1694 -1.17183,1.1694 z"
         fill="#ffffff"
         id="path5" /><path
         d="M 56.2856,18.1428 H 44.9998 c 0.1334,1.181 0.5619,2.1238 1.2858,2.8286 0.7238,0.6857 1.6761,1.0286 2.8571,1.0286 0.7809,0 1.4857,-0.1905 2.1143,-0.5715 0.6286,-0.3809 1.0762,-0.8952 1.3428,-1.5428 h 3.4286 c -0.4571,1.5047 -1.3143,2.7238 -2.5714,3.6571 -1.2381,0.9143 -2.7048,1.3715 -4.4,1.3715 -2.2095,0 -4,-0.7334 -5.3714,-2.2 -1.3524,-1.4667 -2.0286,-3.3239 -2.0286,-5.5715 0,-2.1905 0.6857,-4.0285 2.0571,-5.5143 1.3715,-1.4857 3.1429,-2.22853 5.3143,-2.22853 2.1714,0 3.9238,0.73333 5.2572,2.20003 1.3523,1.4476 2.0285,3.2762 2.0285,5.4857 z m -7.2572,-5.9714 c -1.0667,0 -1.9524,0.3143 -2.6571,0.9429 -0.7048,0.6285 -1.1429,1.4666 -1.3143,2.5142 h 7.8857 c -0.1524,-1.0476 -0.5714,-1.8857 -1.2571,-2.5142 -0.6858,-0.6286 -1.5715,-0.9429 -2.6572,-0.9429 z"
         fill="#000000"
         id="path6" /><path
         d="M 58.6539,20.1428 V 3.14282 h 3.4 V 20.2 c 0,0.7619 0.419,1.1428 1.2571,1.1428 l 0.6,-0.0285 v 3.2285 c -0.3238,0.0572 -0.6667,0.0857 -1.0286,0.0857 -1.4666,0 -2.5428,-0.3714 -3.2285,-1.1142 -0.6667,-0.7429 -1,-1.8667 -1,-3.3715 z"
         fill="#000000"
         id="path7" /><path
         d="M 79.7454,18.1428 H 68.4597 c 0.1333,1.181 0.5619,2.1238 1.2857,2.8286 0.7238,0.6857 1.6762,1.0286 2.8571,1.0286 0.781,0 1.4857,-0.1905 2.1143,-0.5715 0.6286,-0.3809 1.0762,-0.8952 1.3429,-1.5428 h 3.4285 c -0.4571,1.5047 -1.3143,2.7238 -2.5714,3.6571 -1.2381,0.9143 -2.7048,1.3715 -4.4,1.3715 -2.2095,0 -4,-0.7334 -5.3714,-2.2 -1.3524,-1.4667 -2.0286,-3.3239 -2.0286,-5.5715 0,-2.1905 0.6857,-4.0285 2.0571,-5.5143 1.3715,-1.4857 3.1429,-2.22853 5.3143,-2.22853 2.1715,0 3.9238,0.73333 5.2572,2.20003 1.3524,1.4476 2.0285,3.2762 2.0285,5.4857 z m -7.2572,-5.9714 c -1.0666,0 -1.9524,0.3143 -2.6571,0.9429 -0.7048,0.6285 -1.1429,1.4666 -1.3143,2.5142 h 7.8857 c -0.1524,-1.0476 -0.5714,-1.8857 -1.2571,-2.5142 -0.6857,-0.6286 -1.5715,-0.9429 -2.6572,-0.9429 z"
         fill="#000000"
         id="path8" /><path
         d="m 95.0851,16.0571 v 8.5143 h -3.4 v -8.8857 c 0,-2.2476 -0.9333,-3.3714 -2.8,-3.3714 -1.0095,0 -1.819,0.3238 -2.4286,0.9714 -0.5904,0.6476 -0.8857,1.5333 -0.8857,2.6571 v 8.6286 h -3.4 V 9.74282 h 3.1429 v 1.97148 c 0.3619,-0.6667 0.9143,-1.2191 1.6571,-1.6572 0.7429,-0.43809 1.6667,-0.65713 2.7714,-0.65713 2.0572,0 3.5429,0.78093 4.4572,2.34283 1.2571,-1.5619 2.9333,-2.34283 5.0286,-2.34283 1.733,0 3.067,0.54285 4,1.62853 0.933,1.0667 1.4,2.4762 1.4,4.2286 v 9.3143 h -3.4 v -8.8857 c 0,-2.2476 -0.933,-3.3714 -2.8,-3.3714 -1.0286,0 -1.8477,0.3333 -2.4572,1 -0.5905,0.6476 -0.8857,1.5619 -0.8857,2.7428 z"
         fill="#000000"
         id="path9" /><path
         d="m 121.537,18.1428 h -11.286 c 0.133,1.181 0.562,2.1238 1.286,2.8286 0.723,0.6857 1.676,1.0286 2.857,1.0286 0.781,0 1.486,-0.1905 2.114,-0.5715 0.629,-0.3809 1.076,-0.8952 1.343,-1.5428 h 3.429 c -0.458,1.5047 -1.315,2.7238 -2.572,3.6571 -1.238,0.9143 -2.705,1.3715 -4.4,1.3715 -2.209,0 -4,-0.7334 -5.371,-2.2 -1.353,-1.4667 -2.029,-3.3239 -2.029,-5.5715 0,-2.1905 0.686,-4.0285 2.057,-5.5143 1.372,-1.4857 3.143,-2.22853 5.315,-2.22853 2.171,0 3.923,0.73333 5.257,2.20003 1.352,1.4476 2.028,3.2762 2.028,5.4857 z m -7.257,-5.9714 c -1.067,0 -1.953,0.3143 -2.658,0.9429 -0.704,0.6285 -1.142,1.4666 -1.314,2.5142 h 7.886 c -0.153,-1.0476 -0.572,-1.8857 -1.257,-2.5142 -0.686,-0.6286 -1.572,-0.9429 -2.657,-0.9429 z"
         fill="#000000"
         id="path10" /><path
         d="m 127.105,9.74282 v 1.97148 c 0.343,-0.6477 0.905,-1.1905 1.686,-1.6286 0.8,-0.45716 1.762,-0.68573 2.885,-0.68573 1.753,0 3.105,0.53333 4.058,1.60003 0.971,1.0666 1.457,2.4857 1.457,4.2571 v 9.3143 h -3.4 v -8.8857 c 0,-1.0476 -0.248,-1.8667 -0.743,-2.4572 -0.476,-0.6095 -1.21,-0.9142 -2.2,-0.9142 -1.086,0 -1.943,0.3238 -2.572,0.9714 -0.609,0.6476 -0.914,1.5428 -0.914,2.6857 v 8.6 h -3.4 V 9.74282 Z"
         fill="#000000"
         id="path11" /><path
         d="m 147.12,21.5428 v 2.9429 c -0.419,0.1143 -1.009,0.1714 -1.771,0.1714 -2.895,0 -4.343,-1.4571 -4.343,-4.3714 v -7.8286 h -2.257 V 9.74282 h 2.257 V 5.88568 h 3.4 v 3.85714 h 2.772 v 2.71428 h -2.772 v 7.4857 c 0,1.1619 0.552,1.7429 1.657,1.7429 z"
         fill="#000000"
         id="path12" /></g></g></svg>
